<?xml version="1.0" standalone="no"?><!DOCTYPE svg PUBLIC "-//W3C//DTD SVG 1.1//EN" "http://www.w3.org/Graphics/SVG/1.1/DTD/svg11.dtd"><svg t="1598608643831" class="icon" viewBox="0 0 1024 1024" version="1.1" xmlns="http://www.w3.org/2000/svg" p-id="7070" width="44" height="44" xmlns:xlink="http://www.w3.org/1999/xlink"><defs><style type="text/css"></style></defs><path d="M932.571429 54.857143H91.428571c-20.228571 0-36.571429 16.342857-36.571428 36.571428v841.142858c0 20.228571 16.342857 36.571429 36.571428 36.571428h841.142858c20.228571 0 36.571429-16.342857 36.571428-36.571428V91.428571c0-20.228571-16.342857-36.571429-36.571428-36.571428z m-45.714286 832H137.142857V137.142857h749.714286v749.714286zM489.142857 384h210.285714c5.028571 0 9.142857-4.114286 9.142858-9.142857v-54.857143c0-5.028571-4.114286-9.142857-9.142858-9.142857H489.142857c-5.028571 0-9.142857 4.114286-9.142857 9.142857v54.857143c0 5.028571 4.114286 9.142857 9.142857 9.142857z m0 164.571429h210.285714c5.028571 0 9.142857-4.114286 9.142858-9.142858v-54.857142c0-5.028571-4.114286-9.142857-9.142858-9.142858H489.142857c-5.028571 0-9.142857 4.114286-9.142857 9.142858v54.857142c0 5.028571 4.114286 9.142857 9.142857 9.142858z m0 164.571428h210.285714c5.028571 0 9.142857-4.114286 9.142858-9.142857v-54.857143c0-5.028571-4.114286-9.142857-9.142858-9.142857H489.142857c-5.028571 0-9.142857 4.114286-9.142857 9.142857v54.857143c0 5.028571 4.114286 9.142857 9.142857 9.142857zM315.428571 347.428571a45.714286 45.714286 0 1 0 91.428572 0 45.714286 45.714286 0 1 0-91.428572 0z m0 164.571429a45.714286 45.714286 0 1 0 91.428572 0 45.714286 45.714286 0 1 0-91.428572 0z m0 164.571429a45.714286 45.714286 0 1 0 91.428572 0 45.714286 45.714286 0 1 0-91.428572 0z" p-id="7071" fill="#000000"></path></svg>